<!-- icon666.com - MILLIONS OF FREE VECTOR ICONS --><svg fill="none" viewBox="0 0 32 32" xmlns="http://www.w3.org/2000/svg"><g fill="rgb(0,0,0)"><path d="m5 6c0-.55228.44772-1 1-1h1c.55228 0 1 .44772 1 1s-.44772 1-1 1h-1c-.55228 0-1-.44772-1-1z"></path><path d="m10 5c-.55228 0-1 .44772-1 1s.44772 1 1 1h1c.5523 0 1-.44772 1-1s-.4477-1-1-1z"></path><g clip-rule="evenodd" fill-rule="evenodd"><path d="m19.874 20c-.0945.367-.2397.7136-.4278 1.0319l.7964.7965c.3906.3905.3906 1.0237 0 1.4142-.3905.3905-1.0237.3905-1.4142 0l-.7964-.7964c-.3183.1881-.665.3333-1.032.4278v1.126c0 .5523-.4477 1-1 1s-1-.4477-1-1v-1.126c-.367-.0945-.7136-.2397-1.0319-.4278l-.7965.7965c-.3905.3905-1.0237.3905-1.4142 0-.3906-.3906-.3906-1.0237 0-1.4143l.7964-.7964c-.1881-.3183-.3333-.665-.4278-1.032h-1.126c-.5523 0-1-.4477-1-1s.4477-1 1-1h1.126c.0945-.367.2397-.7137.4278-1.032l-.7965-.7965c-.3905-.3905-.3905-1.0237 0-1.4142.3906-.3905 1.0237-.3905 1.4143 0l.7965.7965c.3183-.1881.6649-.3333 1.0319-.4278v-1.126c0-.5523.4477-1 1-1s1 .4477 1 1v1.126c.367.0945.7137.2397 1.032.4278l.7964-.7964c.3906-.3906 1.0237-.3906 1.4143 0 .3905.3905.3905 1.0237 0 1.4142l-.7965.7965c.1881.3183.3333.6649.4278 1.0319h1.126c.5523 0 1 .4477 1 1s-.4477 1-1 1zm-5.874-1c0-1.1046.8954-2 2-2s2 .8954 2 2c0 .5498-.2219 1.0478-.5809 1.4093l-.0049.0049-.0048.0049c-.3616.359-.8596.5809-1.4094.5809-1.1046 0-2-.8954-2-2z"></path><path d="m2 5c0-1.65685 1.34315-3 3-3h22c1.6569 0 3 1.34315 3 3v22c0 1.6569-1.3431 3-3 3h-22c-1.65685 0-3-1.3431-3-3zm26 0v3h-24v-3c0-.55228.44772-1 1-1h22c.5523 0 1 .44772 1 1zm0 5h-24v17c0 .5523.44772 1 1 1h22c.5523 0 1-.4477 1-1z"></path></g></g></svg>