<svg xmlns="http://www.w3.org/2000/svg" viewBox="0 0 48 48"><defs><style>.cls-1{fill:#db5669;}.cls-2{fill:#f26674;}.cls-3{fill:#edebf2;}.cls-4{fill:#dad7e5;}.cls-5{fill:#7c7d7d;}.cls-6{fill:#82bcf4;}.cls-7{fill:#919191;}</style></defs><title>schedule</title><g id="schedule"><path class="cls-1" d="M47,8v7H1V8A3,3,0,0,1,4,5H44A3,3,0,0,1,47,8Z"/><path class="cls-2" d="M47,8v5H7a3,3,0,0,1-3-3c0-4.41-.06-4.39.18-5H44A3,3,0,0,1,47,8Z"/><path class="cls-3" d="M7,9V1A1,1,0,0,1,9,1V9A1,1,0,0,1,7,9Z"/><path class="cls-3" d="M13,9V1a1,1,0,0,1,2,0V9A1,1,0,0,1,13,9Z"/><path class="cls-3" d="M39,9V1a1,1,0,0,1,2,0V9A1,1,0,0,1,39,9Z"/><path class="cls-3" d="M33,9V1a1,1,0,0,1,2,0V9A1,1,0,0,1,33,9Z"/><path class="cls-4" d="M47,15c0,31.66.08,29.34-.18,30A3,3,0,0,1,44,47H4a3,3,0,0,1-3-3V15Z"/><path class="cls-3" d="M47,15c0,31.66.08,29.34-.18,30H7a3,3,0,0,1-3-3V15Z"/><rect class="cls-5" x="16" y="20" width="6" height="4"/><rect class="cls-5" x="6" y="20" width="6" height="4"/><rect class="cls-5" x="36" y="20" width="6" height="4"/><rect class="cls-5" x="16" y="29" width="6" height="4"/><rect class="cls-5" x="6" y="29" width="6" height="4"/><rect class="cls-5" x="26" y="29" width="6" height="4"/><path class="cls-6" d="M15.29,40.71a1,1,0,0,1,1.42-1.42L18,40.59l3.29-3.3a1,1,0,0,1,1.42,1.42C17.26,44.15,18.54,44,15.29,40.71Z"/><path class="cls-6" d="M25.29,22.71a1,1,0,0,1,1.42-1.42L28,22.59l3.29-3.3a1,1,0,0,1,1.42,1.42C27.26,26.15,28.54,26,25.29,22.71Z"/><path class="cls-6" d="M35.29,31.71a1,1,0,0,1,1.42-1.42L38,31.59l3.29-3.3a1,1,0,0,1,1.42,1.42C37.26,35.15,38.54,35,35.29,31.71Z"/><rect class="cls-5" x="6" y="38" width="6" height="4"/><path class="cls-7" d="M12,38v2H10a2,2,0,0,1-2-2Z"/><rect class="cls-5" x="36" y="38" width="6" height="4"/><rect class="cls-5" x="26" y="38" width="6" height="4"/><path class="cls-7" d="M32,38v2H30a2,2,0,0,1-2-2Z"/><path class="cls-7" d="M42,38v2H40a2,2,0,0,1-2-2Z"/><path class="cls-7" d="M42,20v2H40a2,2,0,0,1-2-2Z"/><path class="cls-7" d="M22,20v2H20a2,2,0,0,1-2-2Z"/><path class="cls-7" d="M12,20v2H10a2,2,0,0,1-2-2Z"/><path class="cls-7" d="M12,29v2H10a2,2,0,0,1-2-2Z"/><path class="cls-7" d="M22,29v2H20a2,2,0,0,1-2-2Z"/><path class="cls-7" d="M32,29v2H30a2,2,0,0,1-2-2Z"/><path class="cls-4" d="M8,8a2,2,0,1,0,1.82,2.82A2,2,0,0,0,8,8Z"/><path class="cls-3" d="M7.18,8.18a2,2,0,0,0,2.64,2.64A2,2,0,0,0,7.18,8.18Z"/><path class="cls-4" d="M14,12a2,2,0,1,1,2-2A2,2,0,0,1,14,12Zm0-2h0Zm0,0h0Zm0,0h0Zm0,0h0Zm0,0h0Zm0,0h0Zm0,0h0Zm0,0h0Z"/><path class="cls-4" d="M40,12a2,2,0,1,1,2-2A2,2,0,0,1,40,12Zm0-2h0Zm0,0h0Zm0,0h0Zm0,0h0Zm0,0h0Zm0,0h0Zm0,0h0Zm0,0h0Z"/><path class="cls-4" d="M34,12a2,2,0,1,1,2-2A2,2,0,0,1,34,12Zm0-2h0Zm0,0h0Zm0,0h0Zm0,0h0Zm0,0h0Zm0,0h0Zm0,0h0Zm0,0h0Z"/><path class="cls-3" d="M13.18,8.18a2,2,0,0,0,2.64,2.64A2,2,0,0,0,13.18,8.18Z"/><path class="cls-3" d="M33.18,8.18a2,2,0,0,0,2.64,2.64A2,2,0,0,0,33.18,8.18Z"/><path class="cls-3" d="M39.18,8.18a2,2,0,0,0,2.64,2.64A2,2,0,0,0,39.18,8.18Z"/></g></svg>