<?xml version="1.0" encoding="iso-8859-1"?>
<!-- Generator: Adobe Illustrator 22.0.1, SVG Export Plug-In . SVG Version: 6.00 Build 0)  -->
<svg version="1.1" id="Layer_1_1_" xmlns="http://www.w3.org/2000/svg" xmlns:xlink="http://www.w3.org/1999/xlink" x="0px" y="0px"
	 viewBox="0 0 64 64" style="enable-background:new 0 0 64 64;" xml:space="preserve">
<path d="M3,62h16c0.552,0,1-0.448,1-1v-4c0-2.757-2.243-5-5-5h-1v-0.812c1.79-1.039,3-2.973,3-5.188c0-3.309-2.691-6-6-6
	s-6,2.691-6,6c0,2.215,1.21,4.149,3,5.188V52H7c-2.757,0-5,2.243-5,5v4C2,61.552,2.448,62,3,62z M7.079,46.781
	c1.373,0.026,2.809-0.407,3.921-1.242c1.07,0.803,2.394,1.251,3.75,1.251c0.058,0,0.114-0.009,0.171-0.01
	C14.557,48.613,12.939,50,11,50C9.062,50,7.443,48.614,7.079,46.781z M11,42c1.78,0,3.275,1.177,3.792,2.788
	c-0.014,0-0.028,0.003-0.042,0.003c-1.141,0-2.246-0.465-3.032-1.276c-0.377-0.389-1.06-0.389-1.437,0
	C9.496,44.325,8.391,44.79,7.25,44.79c-0.014,0-0.028-0.002-0.042-0.003C7.725,43.177,9.22,42,11,42z M11,52
	c0.341,0,0.674-0.035,1-0.09v1.945l-1,1.213l-1-1.213V51.91C10.326,51.965,10.659,52,11,52z M4,57c0-1.654,1.346-3,3-3h0.528
	l2.7,3.276c0.38,0.461,1.163,0.461,1.543,0l2.7-3.276H15c1.654,0,3,1.346,3,3v3H4V57z"/>
<path d="M49,52c-2.757,0-5,2.243-5,5v4c0,0.552,0.448,1,1,1h16c0.552,0,1-0.448,1-1v-4c0-2.757-2.243-5-5-5h-1v-0.812
	c1.79-1.039,3-2.973,3-5.188c0-3.309-2.691-6-6-6s-6,2.691-6,6c0,2.215,1.21,4.149,3,5.188V52H49z M56.472,54H57
	c1.654,0,3,1.346,3,3v3H46v-3c0-1.654,1.346-3,3-3h0.528l2.7,3.276c0.38,0.461,1.163,0.461,1.543,0L56.472,54z M49.079,46.781
	c1.373,0.026,2.809-0.407,3.921-1.242c1.07,0.803,2.394,1.251,3.75,1.251c0.058,0,0.114-0.009,0.171-0.01
	C56.557,48.613,54.939,50,53,50C51.062,50,49.443,48.614,49.079,46.781z M53,42c1.78,0,3.275,1.177,3.792,2.788
	c-0.014,0-0.028,0.003-0.042,0.003c-1.141,0-2.246-0.465-3.032-1.276c-0.377-0.389-1.06-0.389-1.437,0
	c-0.786,0.811-1.891,1.276-3.032,1.276c-0.014,0-0.028-0.002-0.042-0.003C49.725,43.177,51.22,42,53,42z M53,52
	c0.341,0,0.674-0.035,1-0.09v1.945l-1,1.213l-1-1.213V51.91C52.326,51.965,52.659,52,53,52z"/>
<path d="M3,24h16c0.552,0,1-0.448,1-1v-4c0-2.757-2.243-5-5-5h-1v-0.812c1.79-1.039,3-2.973,3-5.188c0-3.309-2.691-6-6-6
	S5,4.691,5,8c0,2.215,1.21,4.149,3,5.188V14H7c-2.757,0-5,2.243-5,5v4C2,23.552,2.448,24,3,24z M7.079,8.781
	C8.452,8.807,9.888,8.374,11,7.539c1.07,0.803,2.394,1.251,3.75,1.251c0.058,0,0.114-0.009,0.171-0.01
	C14.557,10.613,12.939,12,11,12C9.062,12,7.443,10.614,7.079,8.781z M11,4c1.78,0,3.275,1.177,3.792,2.788
	c-0.014,0-0.028,0.003-0.042,0.003c-1.141,0-2.246-0.465-3.032-1.276c-0.377-0.389-1.06-0.389-1.437,0
	C9.496,6.325,8.391,6.79,7.25,6.79c-0.014,0-0.028-0.002-0.042-0.003C7.725,5.177,9.22,4,11,4z M11,14c0.341,0,0.674-0.035,1-0.09
	v1.945l-1,1.213l-1-1.213V13.91C10.326,13.965,10.659,14,11,14z M4,19c0-1.654,1.346-3,3-3h0.528l2.7,3.276
	c0.38,0.461,1.163,0.461,1.543,0l2.7-3.276H15c1.654,0,3,1.346,3,3v3H4V19z"/>
<path d="M49,14c-2.757,0-5,2.243-5,5v4c0,0.552,0.448,1,1,1h16c0.552,0,1-0.448,1-1v-4c0-2.757-2.243-5-5-5h-1v-0.812
	c1.79-1.039,3-2.973,3-5.188c0-3.309-2.691-6-6-6s-6,2.691-6,6c0,2.215,1.21,4.149,3,5.188V14H49z M56.472,16H57
	c1.654,0,3,1.346,3,3v3H46v-3c0-1.654,1.346-3,3-3h0.528l2.7,3.276c0.38,0.461,1.163,0.461,1.543,0L56.472,16z M49.079,8.781
	C50.452,8.807,51.888,8.374,53,7.539c1.07,0.803,2.394,1.251,3.75,1.251c0.058,0,0.114-0.009,0.171-0.01
	C56.557,10.613,54.939,12,53,12C51.062,12,49.443,10.614,49.079,8.781z M53,4c1.78,0,3.275,1.177,3.792,2.788
	c-0.014,0-0.028,0.003-0.042,0.003c-1.141,0-2.246-0.465-3.032-1.276c-0.377-0.389-1.06-0.389-1.437,0
	C51.496,6.325,50.391,6.79,49.25,6.79c-0.014,0-0.028-0.002-0.042-0.003C49.725,5.177,51.22,4,53,4z M53,14
	c0.341,0,0.674-0.035,1-0.09v1.945l-1,1.213l-1-1.213V13.91C52.326,13.965,52.659,14,53,14z"/>
<path d="M16,35.5c0,6.065,7.178,11,16,11s16-4.935,16-11s-7.178-11-16-11S16,29.435,16,35.5z M32,26.5c7.72,0,14,4.038,14,9
	s-6.28,9-14,9s-14-4.038-14-9S24.28,26.5,32,26.5z"/>
<circle cx="25" cy="35.5" r="2"/>
<circle cx="32" cy="35.5" r="2"/>
<circle cx="39" cy="35.5" r="2"/>
</svg>
