<svg id="Team-Laptop-Remote-Working--Streamline-Atlas" xmlns="http://www.w3.org/2000/svg" viewBox="-4.69 -4.69 150 150" height="150" width="150"><desc>Team Laptop Remote Working Streamline Icon: https://streamlinehq.com</desc><defs></defs><path d="M19.979758333333336 76.16916666666667H8.78875v-17.050175000000003a16.757216666666668 16.757216666666668 0 0 1 28.651325 -11.718333333333334 15.936933333333336 15.936933333333336 0 0 1 2.46085 3.1053583333333337" fill="none" stroke="#d29853" stroke-miterlimit="10" stroke-width="9.38"></path><path d="M14.354958333333334 19.979758333333336a11.191008333333333 11.191008333333333 0 1 0 22.382016666666665 0 11.191008333333333 11.191008333333333 0 1 0 -22.382016666666665 0" fill="none" stroke="#d29853" stroke-miterlimit="10" stroke-width="9.38"></path><path d="m81.50100833333333 75.93480000000001 -33.573025 0 5.6248 -28.00681666666667 33.514433333333336 0 -5.566208333333333 28.00681666666667z" fill="none" stroke="#d29853" stroke-miterlimit="10" stroke-width="9.38"></path><path d="m53.55278333333334 75.87620833333334 -28.00681666666667 0" fill="none" stroke="#d29853" stroke-miterlimit="10" stroke-width="9.38"></path><path d="M100.719075 106.343875a18.339191666666668 18.339191666666668 0 0 1 2.46085 -3.1639500000000003 16.757216666666668 16.757216666666668 0 0 1 28.651325 11.718333333333334v16.932991666666666h-11.191008333333333" fill="none" stroke="#d29853" stroke-miterlimit="10" stroke-width="9.38"></path><path d="M103.883025 75.87620833333334a11.191008333333333 11.191008333333333 0 1 0 22.382016666666665 0 11.191008333333333 11.191008333333333 0 1 0 -22.382016666666665 0" fill="none" stroke="#d29853" stroke-miterlimit="10" stroke-width="9.38"></path><path d="m59.118991666666666 131.83125 33.573025 0 -5.6248 -27.948224999999997 -33.514433333333336 0 5.566208333333333 27.948224999999997z" fill="none" stroke="#d29853" stroke-miterlimit="10" stroke-width="9.38"></path><path d="m87.06721666666667 131.83125 28.00681666666667 0" fill="none" stroke="#d29853" stroke-miterlimit="10" stroke-width="9.38"></path></svg>